<svg width="24" height="24" viewBox="0 0 24 24" fill="none" xmlns="http://www.w3.org/2000/svg">
<path d="M6.75 13.5C6.75 10.5984 9.09844 8.25 12 8.25C14.9016 8.25 17.25 10.5984 17.25 13.5C17.25 16.4016 14.9016 18.75 12 18.75C9.09844 18.75 6.75 16.4016 6.75 13.5ZM12 10.5C10.3453 10.5 9 11.8453 9 13.5C9 15.1547 10.3453 16.5 12 16.5C13.6547 16.5 15 15.1547 15 13.5C15 11.8453 13.6547 10.5 12 10.5ZM17.0109 3.03844L17.4984 4.5H21C22.6547 4.5 24 5.84531 24 7.5V19.5C24 21.1547 22.6547 22.5 21 22.5H3C1.34297 22.5 0 21.1547 0 19.5V7.5C0 5.84531 1.34297 4.5 3 4.5H6.50156L6.98906 3.03844C7.29375 2.11969 8.15156 1.5 9.12188 1.5H14.8781C15.8484 1.5 16.7062 2.11969 17.0109 3.03844ZM3 6.75C2.58562 6.75 2.25 7.0875 2.25 7.5V19.5C2.25 19.9125 2.58562 20.25 3 20.25H21C21.4125 20.25 21.75 19.9125 21.75 19.5V7.5C21.75 7.0875 21.4125 6.75 21 6.75H15.8766L14.8781 3.75H9.12188L8.12344 6.75H3Z" fill="#C1C1C1"/>
</svg>
