<svg width="24" height="28" viewBox="0 0 24 28" fill="none" xmlns="http://www.w3.org/2000/svg">
<g clip-path="url(#clip0_425_5304)">
<path d="M12 27.4286C5.37321 27.4286 0 25.5107 0 23.1429V4.28571C0 1.91893 5.37321 0 12 0C18.6268 0 24 1.91893 24 4.28571V23.1429C24 25.5107 18.6268 27.4286 12 27.4286ZM21.4286 4.60875L21.3964 4.5825C21.1125 4.34089 20.5446 4.00714 19.6179 3.67714C17.7911 3.02411 15.0964 2.57143 12 2.57143C8.90357 2.57143 6.20893 3.02411 4.37946 3.67714C3.45482 4.00714 2.88804 4.34089 2.60196 4.5825L2.57143 4.60875V9.35893C3.28286 9.70179 4.26643 10.1196 5.50714 10.425C7.32321 10.8268 9.5625 11.1429 12 11.1429C14.4375 11.1429 16.6768 10.8268 18.4929 10.425C19.7357 10.1196 20.7161 9.70179 21.4286 9.35893V4.60875ZM21.4286 12.1929C20.7161 12.4768 19.9339 12.7179 19.1089 12.9214C17.0625 13.425 14.6143 13.7143 12 13.7143C9.38571 13.7143 6.9375 13.425 4.89161 12.9214C4.06768 12.7179 3.285 12.4768 2.57143 12.1929V16.2161C3.28286 16.5589 4.26643 16.9768 5.50714 17.2821C7.32321 17.6839 9.5625 18 12 18C14.4375 18 16.6768 17.6839 18.4929 17.2821C19.7357 16.9768 20.7161 16.5589 21.4286 16.2161V12.1929ZM2.60196 22.8482C2.88804 23.0411 3.45429 23.4214 4.37946 23.7536C6.20893 24.4018 8.90357 24.8571 11.9518 24.8571C15.0964 24.8571 17.7911 24.4018 19.6179 23.7536C20.5446 23.4214 21.1125 23.0411 21.3964 22.8482L21.4286 22.7732V19.05C20.7161 19.3339 19.9339 19.575 19.1089 19.7786C17.0625 20.2821 14.6143 20.5714 11.9518 20.5714C9.38571 20.5714 6.9375 20.2821 4.89161 19.7786C4.06768 19.575 3.285 19.3339 2.52321 19.05V22.7732L2.60196 22.8482ZM21.5357 22.7089L21.5304 22.7196C21.5357 22.6661 21.5411 22.7089 21.5411 22.7089H21.5357ZM2.46964 22.7196C2.46429 22.6661 2.46161 22.7089 2.46107 22.7089L2.46964 22.7196ZM2.46964 4.70893C2.46321 4.71643 2.46107 4.72018 2.46107 4.72018L2.46964 4.70893ZM21.5411 4.72018C21.5411 4.72018 21.5357 4.71643 21.5304 4.70893L21.5411 4.72018Z" fill="#325FFF"/>
</g>
<defs>
<clipPath id="clip0_425_5304">
<rect width="24" height="27.4286" fill="white"/>
</clipPath>
</defs>
</svg>
