<svg width="24" height="24" viewBox="0 0 24 24" fill="none" xmlns="http://www.w3.org/2000/svg">
<path d="M12.975 6.92813C13.4297 6.98438 13.8844 7.11094 14.3344 7.2375C14.4187 7.26094 14.5078 7.28906 14.5922 7.27031C15.1312 7.4625 15.45 8.02031 15.3 8.55938C15.15 9.09844 14.5922 9.4125 14.0531 9.2625C13.9828 9.24375 13.9078 9.225 13.8375 9.20156C13.5094 9.1125 13.1813 9.01875 12.8484 8.95312C12.2297 8.83594 11.5125 8.89219 10.9312 9.14062C10.4156 9.36563 9.98906 9.90937 10.575 10.2844C11.0391 10.5797 11.5969 10.7297 12.1312 10.8328C12.2391 10.9031 12.3516 10.9359 12.4594 10.9641C13.1906 11.175 14.1234 11.4375 14.8219 11.9156C15.7313 12.5391 16.1578 13.5562 15.9609 14.6437C15.7641 15.6937 15.0375 16.3828 14.1562 16.7344C13.7906 16.8844 13.3922 16.9781 12.975 17.025V17.7375C12.975 18.2953 12.5203 18.75 11.9625 18.75C11.4047 18.75 10.95 18.2953 10.95 17.7375V16.9219C10.2703 16.7719 9.60469 16.5516 8.94375 16.3359C8.41406 16.1625 8.12344 15.5859 8.30156 15.0563C8.475 14.5266 9.05156 14.2359 9.58125 14.4141C9.69844 14.4516 9.81562 14.4937 9.93281 14.5312C10.4625 14.7094 11.0062 14.8969 11.55 14.9813C12.3469 15.0984 12.9422 15.0281 13.4016 14.8172C13.9641 14.6297 14.2266 13.9641 13.6781 13.5891C13.2047 13.2234 12.6187 13.1062 12.0609 12.9562C11.9109 12.9234 11.8453 12.8953 11.7422 12.8672C11.0344 12.6656 10.1531 12.4172 9.4875 11.9906C8.57344 11.4047 8.10469 10.4297 8.30156 9.34687C8.48906 8.325 9.28594 7.64531 10.1297 7.28437C10.3875 7.12969 10.6641 7.08281 10.95 7.01719V6.2625C10.95 5.70469 11.4047 5.20781 11.9625 5.20781C12.5203 5.20781 12.975 5.70469 12.975 6.2625V6.92813ZM24 12C24 18.6281 18.6281 24 12 24C5.37188 24 0 18.6281 0 12C0 5.37188 5.37188 0 12 0C18.6281 0 24 5.37188 24 12ZM12 2.25C6.61406 2.25 2.25 6.61406 2.25 12C2.25 17.3859 6.61406 21.75 12 21.75C17.3859 21.75 21.75 17.3859 21.75 12C21.75 6.61406 17.3859 2.25 12 2.25Z" fill="#325FFF"/>
</svg>
