<svg width="24" height="24" viewBox="0 0 24 24" fill="none" xmlns="http://www.w3.org/2000/svg">
<g clip-path="url(#clip0_425_5330)">
<path d="M12 13.5C15.728 13.5 18.75 10.478 18.75 6.75C18.75 3.02203 15.728 0 12 0C8.2725 0 5.25 3.02203 5.25 6.75C5.25 10.478 8.27344 13.5 12 13.5ZM12 2.25C14.4816 2.25 16.5 4.26844 16.5 6.75C16.5 9.23109 14.4816 11.25 12 11.25C9.51891 11.25 7.5 9.23109 7.5 6.75C7.5 4.26844 9.52031 2.25 12 2.25ZM16.4578 15H7.5C3.35812 15 0 18.3577 0 22.5C0 23.3283 0.671719 24 1.45781 24H22.5C23.3283 24 23.9578 23.3283 23.9578 22.5C24 18.3562 20.6438 15 16.4578 15ZM2.30344 21.75C2.66845 19.2089 4.86 17.25 7.50187 17.25H16.4597C19.1002 17.25 21.2925 19.2089 21.6581 21.75H2.30344Z" fill="#325FFF"/>
</g>
<defs>
<clipPath id="clip0_425_5330">
<rect width="24" height="24" fill="white"/>
</clipPath>
</defs>
</svg>
