<svg width="24" height="27" viewBox="0 0 24 27" fill="none" xmlns="http://www.w3.org/2000/svg">
<g clip-path="url(#clip0_418_5418)">
<path d="M22.2857 0C21.4286 0 15.4286 1.66667 15.4286 9.16667V15C15.4286 16.8385 16.9661 18.3333 18.8571 18.3333H20.5714V25C20.5714 25.9219 21.3375 26.6667 22.2857 26.6667C23.2339 26.6667 24 25.9219 24 25V18.3333V12.5V1.66667C24 0.744792 23.2339 0 22.2857 0ZM3.42857 0.833333C3.42857 0.40625 3.10179 0.0520833 2.6625 0.00520833C2.22321 -0.0416667 1.83214 0.239583 1.73571 0.651042L0.1125 7.75C0.0375 8.07812 0 8.41146 0 8.74479C0 11.1354 1.88036 13.099 4.28571 13.3125V25C4.28571 25.9219 5.05179 26.6667 6 26.6667C6.94821 26.6667 7.71429 25.9219 7.71429 25V13.3125C10.1196 13.099 12 11.1354 12 8.74479C12 8.41146 11.9625 8.07812 11.8875 7.75L10.2643 0.651042C10.1679 0.234375 9.76607 -0.0416667 9.33214 0.00520833C8.89821 0.0520833 8.57143 0.40625 8.57143 0.833333V7.82292C8.57143 8.10417 8.33571 8.33333 8.04643 8.33333C7.77321 8.33333 7.54821 8.13021 7.52143 7.86458L6.85179 0.760417C6.81429 0.328125 6.44464 0 6 0C5.55536 0 5.18571 0.328125 5.14821 0.760417L4.48393 7.86458C4.45714 8.13021 4.23214 8.33333 3.95893 8.33333C3.66964 8.33333 3.43393 8.10417 3.43393 7.82292V0.833333H3.42857ZM6.01607 8.75H6H5.98393L6 8.71354L6.01607 8.75Z" fill="#C1C1C1"/>
</g>
<defs>
<clipPath id="clip0_418_5418">
<rect width="24" height="26.6667" fill="white"/>
</clipPath>
</defs>
</svg>
