<svg width="18" height="21" viewBox="0 0 18 21" fill="none" xmlns="http://www.w3.org/2000/svg">
<path d="M17.9636 10.2856C17.9636 10.9967 17.4252 11.5713 16.7141 11.5713H4.39132L8.62614 15.8061C9.12837 16.3083 9.12837 17.122 8.62614 17.6242C8.37301 17.8753 8.04355 17.9999 7.71408 17.9999C7.38462 17.9999 7.05596 17.8743 6.80525 17.6232L0.376674 11.1946C-0.125558 10.6924 -0.125558 9.87877 0.376674 9.37653L6.80525 2.94796C7.30748 2.44573 8.12109 2.44573 8.62333 2.94796C9.12556 3.4502 9.12556 4.26381 8.62333 4.76604L4.39132 8.99986H16.7141C17.4252 8.99986 17.9636 9.57441 17.9636 10.2856Z" fill="black"/>
</svg>
