<svg width="222" height="288" viewBox="0 0 222 288" fill="none" xmlns="http://www.w3.org/2000/svg">
<rect y="36.75" width="67.5" height="67.5" rx="4.752" fill="#F5F5F5"/>
<rect x="77" y="36.75" width="67.5" height="67.5" rx="4.752" fill="#F5F5F5"/>
<rect x="154" y="36.75" width="67.5" height="67.5" rx="4.752" fill="#F5F5F5"/>
<rect x="6" y="173" width="50" height="50" rx="3.52" fill="#F5F5F5"/>
<path fill-rule="evenodd" clip-rule="evenodd" d="M24.5021 193.103L30.6843 185.154C30.8444 184.949 31.1556 184.949 31.3157 185.154L37.4979 193.103C37.5203 193.132 37.5381 193.162 37.5514 193.193C39.664 195.027 41 197.732 41 200.748C41 206.271 36.5228 210.748 31 210.748C25.4772 210.748 21 206.271 21 200.748C21 197.732 22.336 195.027 24.4486 193.193C24.4619 193.162 24.4797 193.132 24.5021 193.103Z" fill="#D9D9D9"/>
<path d="M9.70952 140.909V154H7.33807V140.909H9.70952ZM12.1752 154V144.182H14.3869V145.85H14.502C14.7065 145.288 15.0453 144.849 15.5183 144.533C15.9913 144.214 16.5559 144.054 17.2122 144.054C17.877 144.054 18.4373 144.216 18.8933 144.54C19.3535 144.859 19.6774 145.296 19.8649 145.85H19.9672C20.1845 145.305 20.551 144.87 21.0666 144.546C21.5865 144.218 22.2022 144.054 22.9139 144.054C23.8173 144.054 24.5545 144.339 25.1255 144.911C25.6966 145.482 25.9821 146.315 25.9821 147.41V154H23.6618V147.768C23.6618 147.158 23.4998 146.713 23.176 146.432C22.8521 146.146 22.4558 146.004 21.987 146.004C21.4288 146.004 20.992 146.178 20.6767 146.528C20.3656 146.873 20.2101 147.322 20.2101 147.876V154H17.9409V147.672C17.9409 147.165 17.7875 146.76 17.4806 146.457C17.1781 146.155 16.7818 146.004 16.2917 146.004C15.9593 146.004 15.6568 146.089 15.3841 146.259C15.1113 146.425 14.894 146.662 14.7321 146.969C14.5701 147.271 14.4892 147.625 14.4892 148.03V154H12.1752ZM28.3295 157.682V144.182H30.6051V145.805H30.7393C30.8587 145.567 31.027 145.313 31.2443 145.045C31.4616 144.772 31.7557 144.54 32.1264 144.348C32.4972 144.152 32.9702 144.054 33.5455 144.054C34.304 144.054 34.9879 144.248 35.5973 144.636C36.2109 145.019 36.6967 145.588 37.0547 146.342C37.4169 147.092 37.598 148.013 37.598 149.104C37.598 150.182 37.4212 151.098 37.0675 151.852C36.7138 152.607 36.2322 153.182 35.6229 153.578C35.0135 153.974 34.3232 154.173 33.5518 154.173C32.9893 154.173 32.5227 154.079 32.152 153.891C31.7813 153.704 31.483 153.478 31.2571 153.214C31.0355 152.945 30.8629 152.692 30.7393 152.453H30.6435V157.682H28.3295ZM30.5987 149.091C30.5987 149.726 30.6882 150.282 30.8672 150.759C31.0504 151.237 31.3125 151.609 31.6534 151.878C31.9986 152.142 32.4162 152.274 32.9062 152.274C33.4176 152.274 33.8459 152.138 34.1911 151.865C34.5362 151.588 34.7962 151.211 34.9709 150.734C35.1499 150.252 35.2393 149.705 35.2393 149.091C35.2393 148.482 35.152 147.94 34.9773 147.467C34.8026 146.994 34.5426 146.624 34.1974 146.355C33.8523 146.087 33.4219 145.952 32.9062 145.952C32.4119 145.952 31.9922 146.082 31.647 146.342C31.3018 146.602 31.0398 146.967 30.8608 147.435C30.6861 147.904 30.5987 148.456 30.5987 149.091ZM42.4048 154.198C41.7827 154.198 41.2223 154.087 40.7237 153.866C40.2294 153.64 39.8374 153.308 39.5476 152.869C39.2621 152.43 39.1193 151.888 39.1193 151.245C39.1193 150.691 39.2216 150.233 39.4261 149.871C39.6307 149.509 39.9098 149.219 40.2635 149.001C40.6172 148.784 41.0156 148.62 41.4588 148.509C41.9063 148.394 42.3686 148.311 42.8459 148.26C43.4212 148.2 43.8878 148.147 44.2457 148.1C44.6037 148.049 44.8636 147.972 45.0256 147.87C45.1918 147.763 45.2749 147.599 45.2749 147.378V147.339C45.2749 146.858 45.1321 146.485 44.8466 146.221C44.5611 145.957 44.1499 145.825 43.6129 145.825C43.0462 145.825 42.5966 145.948 42.2642 146.195C41.9361 146.442 41.7145 146.734 41.5994 147.071L39.4389 146.764C39.6094 146.168 39.8906 145.669 40.2827 145.268C40.6747 144.864 41.1541 144.561 41.7209 144.361C42.2876 144.156 42.9141 144.054 43.6001 144.054C44.0732 144.054 44.544 144.109 45.0128 144.22C45.4815 144.331 45.9098 144.514 46.2976 144.77C46.6854 145.021 46.9964 145.364 47.2308 145.799C47.4695 146.234 47.5888 146.777 47.5888 147.429V154H45.3643V152.651H45.2876C45.147 152.924 44.9489 153.18 44.6932 153.418C44.4418 153.653 44.1243 153.842 43.7408 153.987C43.3615 154.128 42.9162 154.198 42.4048 154.198ZM43.0057 152.498C43.4702 152.498 43.8729 152.406 44.2138 152.223C44.5547 152.036 44.8168 151.788 45 151.482C45.1875 151.175 45.2812 150.84 45.2812 150.478V149.321C45.2088 149.381 45.0852 149.436 44.9105 149.487C44.7401 149.538 44.5483 149.583 44.3352 149.621C44.1222 149.66 43.9112 149.694 43.7024 149.724C43.4936 149.754 43.3125 149.779 43.1591 149.8C42.8139 149.847 42.505 149.924 42.2322 150.031C41.9595 150.137 41.7443 150.286 41.5866 150.478C41.429 150.665 41.3501 150.908 41.3501 151.207C41.3501 151.633 41.5057 151.955 41.8168 152.172C42.1278 152.389 42.5241 152.498 43.0057 152.498ZM54.1982 154.192C53.218 154.192 52.3764 153.977 51.6733 153.546C50.9744 153.116 50.4354 152.521 50.0561 151.763C49.6811 151 49.4936 150.122 49.4936 149.129C49.4936 148.132 49.6854 147.252 50.0689 146.489C50.4524 145.722 50.9936 145.126 51.6925 144.7C52.3956 144.269 53.2266 144.054 54.1854 144.054C54.9822 144.054 55.6875 144.201 56.3011 144.495C56.919 144.785 57.4112 145.196 57.7777 145.729C58.1442 146.257 58.353 146.875 58.4041 147.582H56.1925C56.103 147.109 55.8899 146.715 55.5533 146.4C55.2209 146.08 54.7756 145.92 54.2173 145.92C53.7443 145.92 53.3288 146.048 52.9709 146.304C52.6129 146.555 52.3338 146.918 52.1335 147.391C51.9375 147.864 51.8395 148.43 51.8395 149.091C51.8395 149.76 51.9375 150.335 52.1335 150.817C52.3295 151.294 52.6044 151.663 52.9581 151.923C53.3161 152.178 53.7358 152.306 54.2173 152.306C54.5582 152.306 54.8629 152.242 55.1314 152.114C55.4041 151.982 55.6321 151.793 55.8153 151.545C55.9986 151.298 56.1243 150.998 56.1925 150.644H58.4041C58.3487 151.339 58.1442 151.955 57.7905 152.491C57.4368 153.024 56.9553 153.442 56.3459 153.744C55.7365 154.043 55.0206 154.192 54.1982 154.192ZM65.2069 144.182V145.972H59.5627V144.182H65.2069ZM60.9561 141.83H63.2701V151.047C63.2701 151.358 63.3169 151.597 63.4107 151.763C63.5087 151.925 63.6365 152.036 63.7942 152.095C63.9519 152.155 64.1266 152.185 64.3184 152.185C64.4632 152.185 64.5953 152.174 64.7147 152.153C64.8382 152.131 64.932 152.112 64.9959 152.095L65.3858 153.904C65.2623 153.947 65.0854 153.994 64.8553 154.045C64.6294 154.096 64.3525 154.126 64.0243 154.134C63.4448 154.151 62.9228 154.064 62.4583 153.872C61.9938 153.676 61.6252 153.374 61.3525 152.964C61.084 152.555 60.9519 152.044 60.9561 151.43V141.83Z" fill="#858585"/>
<path d="M1.29119 4.90909H4.19318L8.07955 14.3949H8.23295L12.1193 4.90909H15.0213V18H12.7457V9.00639H12.6243L9.00639 17.9616H7.30611L3.68821 8.98722H3.56676V18H1.29119V4.90909ZM21.848 18.1918C20.8636 18.1918 20.0135 17.9872 19.2976 17.5781C18.5859 17.1648 18.0384 16.581 17.6548 15.8267C17.2713 15.0682 17.0795 14.1754 17.0795 13.1484C17.0795 12.1385 17.2713 11.2521 17.6548 10.4893C18.0426 9.7223 18.5838 9.12571 19.2784 8.69957C19.973 8.26918 20.7891 8.05398 21.7266 8.05398C22.3317 8.05398 22.9027 8.15199 23.4396 8.34801C23.9808 8.53977 24.4581 8.83807 24.8714 9.2429C25.2891 9.64773 25.6172 10.1634 25.8558 10.7898C26.0945 11.4119 26.2138 12.1534 26.2138 13.0142V13.7237H18.1662V12.1641H23.9957C23.9915 11.7209 23.8956 11.3267 23.7081 10.9815C23.5206 10.6321 23.2585 10.3572 22.9219 10.157C22.5895 9.95668 22.2017 9.85653 21.7585 9.85653C21.2855 9.85653 20.87 9.97159 20.5121 10.2017C20.1541 10.4276 19.875 10.7259 19.6747 11.0966C19.4787 11.4631 19.3786 11.8658 19.3743 12.3047V13.6662C19.3743 14.2372 19.4787 14.7273 19.6875 15.1364C19.8963 15.5412 20.1882 15.8523 20.5632 16.0696C20.9382 16.2827 21.3771 16.3892 21.88 16.3892C22.2166 16.3892 22.5213 16.3423 22.794 16.2486C23.0668 16.1506 23.3033 16.0078 23.5036 15.8203C23.7038 15.6328 23.8551 15.4006 23.9574 15.1236L26.1179 15.3665C25.9815 15.9375 25.7216 16.4361 25.3381 16.8622C24.9588 17.2841 24.473 17.6122 23.8807 17.8466C23.2884 18.0767 22.6108 18.1918 21.848 18.1918ZM30.9966 18.1982C30.3745 18.1982 29.8141 18.0874 29.3155 17.8658C28.8212 17.6399 28.4292 17.3075 28.1394 16.8686C27.8539 16.4297 27.7111 15.8885 27.7111 15.245C27.7111 14.6911 27.8134 14.233 28.0179 13.8707C28.2225 13.5085 28.5016 13.2188 28.8553 13.0014C29.209 12.7841 29.6074 12.62 30.0506 12.5092C30.498 12.3942 30.9604 12.3111 31.4377 12.2599C32.013 12.2003 32.4796 12.147 32.8375 12.1001C33.1955 12.049 33.4554 11.9723 33.6174 11.87C33.7836 11.7635 33.8667 11.5994 33.8667 11.3778V11.3395C33.8667 10.858 33.7239 10.4851 33.4384 10.2209C33.1529 9.95668 32.7417 9.82457 32.2047 9.82457C31.638 9.82457 31.1884 9.94815 30.856 10.1953C30.5279 10.4425 30.3063 10.7344 30.1912 11.071L28.0307 10.7642C28.2012 10.1676 28.4824 9.66903 28.8745 9.26847C29.2665 8.86364 29.7459 8.56108 30.3127 8.3608C30.8794 8.15625 31.5059 8.05398 32.1919 8.05398C32.665 8.05398 33.1358 8.10938 33.6046 8.22017C34.0733 8.33097 34.5016 8.5142 34.8894 8.76989C35.2772 9.02131 35.5882 9.36435 35.8226 9.79901C36.0613 10.2337 36.1806 10.777 36.1806 11.429V18H33.9561V16.6513H33.8794C33.7388 16.924 33.5407 17.1797 33.285 17.4183C33.0336 17.6527 32.7161 17.8423 32.3326 17.9872C31.9533 18.1278 31.508 18.1982 30.9966 18.1982ZM31.5975 16.4979C32.062 16.4979 32.4647 16.4062 32.8056 16.223C33.1465 16.0355 33.4086 15.7884 33.5918 15.4815C33.7793 15.1747 33.873 14.8402 33.873 14.478V13.321C33.8006 13.3807 33.677 13.4361 33.5023 13.4872C33.3319 13.5384 33.1401 13.5831 32.927 13.6214C32.714 13.6598 32.503 13.6939 32.2942 13.7237C32.0854 13.7536 31.9043 13.7791 31.7509 13.8004C31.4057 13.8473 31.0968 13.924 30.824 14.0305C30.5513 14.1371 30.3361 14.2862 30.1784 14.478C30.0208 14.6655 29.9419 14.9084 29.9419 15.2067C29.9419 15.6328 30.0975 15.9545 30.4086 16.1719C30.7196 16.3892 31.1159 16.4979 31.5975 16.4979ZM40.8212 4.90909V18H38.5073V4.90909H40.8212ZM50.9606 10.777L48.8512 11.0071C48.7915 10.794 48.6871 10.5938 48.538 10.4062C48.3931 10.2188 48.1971 10.0675 47.9499 9.95241C47.7028 9.83736 47.4002 9.77983 47.0423 9.77983C46.5607 9.77983 46.1559 9.88423 45.8278 10.093C45.5039 10.3018 45.3441 10.5724 45.3484 10.9048C45.3441 11.1903 45.4485 11.4226 45.6616 11.6016C45.8789 11.7805 46.2369 11.9276 46.7354 12.0426L48.4102 12.4006C49.3391 12.6009 50.0295 12.9183 50.4812 13.353C50.9371 13.7876 51.1673 14.3565 51.1715 15.0597C51.1673 15.6776 50.9862 16.223 50.6282 16.696C50.2745 17.1648 49.7823 17.5312 49.1516 17.7955C48.521 18.0597 47.7965 18.1918 46.9783 18.1918C45.7766 18.1918 44.8093 17.9403 44.0763 17.4375C43.3434 16.9304 42.9066 16.2251 42.766 15.3217L45.0224 15.1044C45.1246 15.5476 45.342 15.8821 45.6744 16.108C46.0067 16.3338 46.4393 16.4467 46.9719 16.4467C47.5217 16.4467 47.9627 16.3338 48.2951 16.108C48.6317 15.8821 48.8001 15.603 48.8001 15.2706C48.8001 14.9893 48.6914 14.7571 48.4741 14.5739C48.261 14.3906 47.9286 14.25 47.4769 14.152L45.8022 13.8004C44.8604 13.6044 44.1637 13.2741 43.712 12.8097C43.2603 12.3409 43.0366 11.7486 43.0408 11.0327C43.0366 10.4276 43.2006 9.90341 43.533 9.46023C43.8697 9.01278 44.3363 8.66761 44.9329 8.42472C45.5337 8.17756 46.2262 8.05398 47.0103 8.05398C48.1609 8.05398 49.0664 8.29901 49.7269 8.78906C50.3917 9.27912 50.8029 9.94176 50.9606 10.777Z" fill="#858585"/>
<rect x="6" y="238" width="50" height="50" rx="3.52" fill="#F5F5F5"/>
<path fill-rule="evenodd" clip-rule="evenodd" d="M15 267C15 269.761 17.2385 272 20 272H41C43.7615 272 46 269.314 46 266C46 262.686 43.7615 260 41 260C40.1777 260 39.4019 260.238 38.7178 260.66C38.9006 260.141 39 259.582 39 259C39 256.239 36.7615 254 34 254C32.0667 254 30.3899 255.097 29.5579 256.703C28.8096 256.256 27.9346 256 27 256C24.2385 256 22 258.239 22 261C22 261.533 22.0833 262.046 22.2375 262.527C21.5642 262.19 20.8044 262 20 262C17.2385 262 15 264.239 15 267Z" fill="#D9D9D9"/>
<path d="M71.1122 204L68.2884 193.818H69.9041L71.8878 201.703H71.9822L74.0455 193.818H75.6463L77.7095 201.708H77.804L79.7827 193.818H81.4034L78.5746 204H77.0284L74.8857 196.374H74.8061L72.6634 204H71.1122ZM84.1552 204.169C83.6713 204.169 83.2338 204.08 82.8427 203.901C82.4516 203.718 82.1417 203.455 81.913 203.11C81.6876 202.765 81.5749 202.343 81.5749 201.842C81.5749 201.411 81.6578 201.057 81.8235 200.778C81.9892 200.5 82.2129 200.28 82.4947 200.117C82.7764 199.955 83.0913 199.832 83.4393 199.749C83.7873 199.666 84.1419 199.603 84.5032 199.56C84.9606 199.507 85.3318 199.464 85.6168 199.431C85.9019 199.395 86.109 199.337 86.2383 199.257C86.3675 199.178 86.4322 199.048 86.4322 198.869V198.835C86.4322 198.4 86.3095 198.064 86.0643 197.825C85.8223 197.587 85.4611 197.467 84.9805 197.467C84.48 197.467 84.0856 197.578 83.7972 197.8C83.5122 198.019 83.315 198.263 83.2056 198.531L81.8086 198.213C81.9743 197.749 82.2163 197.375 82.5344 197.089C82.8559 196.801 83.2255 196.592 83.6431 196.463C84.0607 196.33 84.4999 196.264 84.9606 196.264C85.2655 196.264 85.5887 196.301 85.93 196.374C86.2747 196.443 86.5962 196.572 86.8945 196.761C87.1961 196.95 87.4431 197.22 87.6353 197.572C87.8275 197.92 87.9237 198.372 87.9237 198.929V204H86.4719V202.956H86.4123C86.3162 203.148 86.172 203.337 85.9798 203.523C85.7875 203.708 85.5406 203.862 85.239 203.985C84.9374 204.108 84.5761 204.169 84.1552 204.169ZM84.4783 202.976C84.8893 202.976 85.2406 202.895 85.5323 202.732C85.8273 202.57 86.051 202.358 86.2035 202.096C86.3593 201.831 86.4371 201.547 86.4371 201.246V200.261C86.3841 200.314 86.2814 200.364 86.1289 200.411C85.9798 200.454 85.8091 200.492 85.6168 200.525C85.4246 200.555 85.2373 200.583 85.055 200.609C84.8728 200.633 84.7203 200.652 84.5977 200.669C84.3093 200.705 84.0458 200.767 83.8072 200.853C83.5719 200.939 83.3829 201.063 83.2404 201.226C83.1012 201.385 83.0316 201.597 83.0316 201.862C83.0316 202.23 83.1675 202.509 83.4393 202.697C83.7111 202.883 84.0574 202.976 84.4783 202.976ZM93.4682 196.364V197.557H89.2971V196.364H93.4682ZM90.4157 194.534H91.9022V201.758C91.9022 202.046 91.9453 202.263 92.0314 202.409C92.1176 202.552 92.2286 202.649 92.3645 202.702C92.5037 202.752 92.6545 202.777 92.8169 202.777C92.9363 202.777 93.0407 202.769 93.1301 202.752C93.2196 202.736 93.2892 202.722 93.339 202.712L93.6074 203.94C93.5212 203.973 93.3986 204.007 93.2395 204.04C93.0804 204.076 92.8816 204.096 92.6429 204.099C92.2518 204.106 91.8873 204.036 91.5492 203.891C91.2111 203.745 90.9377 203.519 90.7289 203.214C90.5201 202.91 90.4157 202.527 90.4157 202.066V194.534ZM98.3217 204.154C97.5694 204.154 96.9214 203.993 96.3778 203.672C95.8376 203.347 95.42 202.891 95.125 202.305C94.8333 201.715 94.6875 201.024 94.6875 200.232C94.6875 199.449 94.8333 198.76 95.125 198.163C95.42 197.567 95.831 197.101 96.358 196.766C96.8883 196.432 97.508 196.264 98.2173 196.264C98.6482 196.264 99.0658 196.335 99.4702 196.478C99.8745 196.621 100.237 196.844 100.559 197.149C100.88 197.454 101.134 197.85 101.32 198.337C101.505 198.821 101.598 199.41 101.598 200.102V200.629H95.5277V199.516H100.141C100.141 199.125 100.062 198.778 99.9027 198.477C99.7436 198.172 99.5199 197.931 99.2315 197.756C98.9465 197.58 98.6117 197.492 98.2273 197.492C97.8097 197.492 97.4451 197.595 97.1335 197.8C96.8253 198.003 96.5866 198.268 96.4176 198.596C96.2519 198.921 96.169 199.274 96.169 199.655V200.525C96.169 201.035 96.2585 201.469 96.4375 201.827C96.6198 202.185 96.8733 202.459 97.1982 202.648C97.523 202.833 97.9025 202.926 98.3366 202.926C98.6184 202.926 98.8752 202.886 99.1072 202.807C99.3393 202.724 99.5398 202.601 99.7088 202.439C99.8778 202.277 100.007 202.076 100.097 201.837L101.504 202.091C101.391 202.505 101.189 202.868 100.897 203.18C100.609 203.488 100.246 203.728 99.8082 203.901C99.3741 204.07 98.8786 204.154 98.3217 204.154ZM103.247 204V196.364H104.684V197.577H104.764C104.903 197.166 105.148 196.843 105.499 196.607C105.854 196.369 106.255 196.249 106.703 196.249C106.795 196.249 106.905 196.253 107.031 196.259C107.16 196.266 107.261 196.274 107.334 196.284V197.706C107.274 197.689 107.168 197.671 107.016 197.651C106.863 197.628 106.711 197.616 106.558 197.616C106.207 197.616 105.894 197.691 105.619 197.84C105.347 197.986 105.132 198.19 104.972 198.452C104.813 198.71 104.734 199.005 104.734 199.337V204H103.247Z" fill="#636363"/>
<path d="M77.5753 261.129H76.0241C75.9645 260.798 75.8535 260.506 75.6911 260.254C75.5286 260.002 75.3298 259.789 75.0945 259.613C74.8591 259.437 74.5956 259.305 74.304 259.215C74.0156 259.126 73.709 259.081 73.3842 259.081C72.7976 259.081 72.2723 259.228 71.8082 259.523C71.3475 259.818 70.983 260.251 70.7145 260.821C70.4493 261.391 70.3168 262.087 70.3168 262.909C70.3168 263.738 70.4493 264.437 70.7145 265.007C70.983 265.577 71.3492 266.008 71.8132 266.3C72.2772 266.591 72.7992 266.737 73.3793 266.737C73.7008 266.737 74.0057 266.694 74.294 266.608C74.5857 266.518 74.8492 266.388 75.0845 266.215C75.3198 266.043 75.5187 265.832 75.6811 265.584C75.8468 265.332 75.9612 265.044 76.0241 264.719L77.5753 264.724C77.4924 265.224 77.3317 265.685 77.093 266.106C76.8577 266.523 76.5545 266.885 76.1832 267.19C75.8153 267.491 75.3944 267.725 74.9205 267.891C74.4465 268.056 73.9295 268.139 73.3693 268.139C72.4877 268.139 71.7022 267.93 71.0128 267.513C70.3234 267.092 69.7798 266.49 69.3821 265.708C68.9877 264.926 68.7905 263.993 68.7905 262.909C68.7905 261.822 68.9893 260.889 69.3871 260.11C69.7848 259.328 70.3284 258.728 71.0178 258.31C71.7071 257.889 72.491 257.679 73.3693 257.679C73.9096 257.679 74.4134 257.757 74.8807 257.913C75.3513 258.065 75.7739 258.29 76.1484 258.589C76.523 258.884 76.8329 259.245 77.0781 259.673C77.3234 260.097 77.4891 260.582 77.5753 261.129ZM88.258 262.909C88.258 263.996 88.0591 264.931 87.6614 265.713C87.2637 266.492 86.7185 267.092 86.0257 267.513C85.3364 267.93 84.5525 268.139 83.6742 268.139C82.7926 268.139 82.0054 267.93 81.3127 267.513C80.6233 267.092 80.0797 266.49 79.682 265.708C79.2843 264.926 79.0854 263.993 79.0854 262.909C79.0854 261.822 79.2843 260.889 79.682 260.11C80.0797 259.328 80.6233 258.728 81.3127 258.31C82.0054 257.889 82.7926 257.679 83.6742 257.679C84.5525 257.679 85.3364 257.889 86.0257 258.31C86.7185 258.728 87.2637 259.328 87.6614 260.11C88.0591 260.889 88.258 261.822 88.258 262.909ZM86.7367 262.909C86.7367 262.08 86.6025 261.383 86.334 260.816C86.0688 260.246 85.7042 259.815 85.2402 259.523C84.7795 259.228 84.2575 259.081 83.6742 259.081C83.0875 259.081 82.5639 259.228 82.1032 259.523C81.6425 259.815 81.2779 260.246 81.0094 260.816C80.7443 261.383 80.6117 262.08 80.6117 262.909C80.6117 263.738 80.7443 264.437 81.0094 265.007C81.2779 265.574 81.6425 266.005 82.1032 266.3C82.5639 266.591 83.0875 266.737 83.6742 266.737C84.2575 266.737 84.7795 266.591 85.2402 266.3C85.7042 266.005 86.0688 265.574 86.334 265.007C86.6025 264.437 86.7367 263.738 86.7367 262.909ZM90.0341 268V266.886L93.4794 263.317C93.8473 262.929 94.1506 262.589 94.3892 262.298C94.6312 262.003 94.8118 261.723 94.9311 261.457C95.0504 261.192 95.1101 260.911 95.1101 260.612C95.1101 260.274 95.0305 259.982 94.8714 259.737C94.7124 259.489 94.4953 259.298 94.2202 259.165C93.9451 259.03 93.6352 258.962 93.2905 258.962C92.9259 258.962 92.6077 259.036 92.3359 259.185C92.0642 259.335 91.8554 259.545 91.7095 259.817C91.5637 260.089 91.4908 260.407 91.4908 260.771H90.0241C90.0241 260.152 90.1667 259.61 90.4517 259.146C90.7367 258.682 91.1278 258.322 91.625 258.067C92.1222 257.808 92.6873 257.679 93.3203 257.679C93.96 257.679 94.5234 257.807 95.0107 258.062C95.5012 258.314 95.884 258.658 96.1591 259.096C96.4342 259.53 96.5717 260.021 96.5717 260.567C96.5717 260.945 96.5005 261.315 96.358 261.676C96.2188 262.037 95.9751 262.44 95.6271 262.884C95.2791 263.325 94.7952 263.86 94.1754 264.49L92.152 266.608V266.683H96.7358V268H90.0341Z" fill="#636363"/>
</svg>
