<svg width="24" height="28" viewBox="0 0 24 28" fill="none" xmlns="http://www.w3.org/2000/svg">
<g clip-path="url(#clip0_425_5284)">
<path d="M22.7143 4.35C23.4268 4.35 24 4.93453 24 5.655C24 6.37819 23.4268 6.96 22.7143 6.96H22.0929L20.8071 24.6156C20.6732 26.4317 19.1839 27.84 17.3893 27.84H6.61071C4.81714 27.84 3.32625 26.4317 3.19339 24.6156L1.905 6.96H1.28571C0.575893 6.96 0 6.37819 0 5.655C0 4.93453 0.575893 4.35 1.28571 4.35H5.02607L6.99107 1.35611C7.54821 0.508787 8.48571 0 9.4875 0H14.5125C15.5143 0 16.4518 0.508841 17.0089 1.35611L18.975 4.35H22.7143ZM9.4875 2.61C9.34821 2.61 9.16607 2.68286 9.13393 2.80358L8.11607 4.35H15.8839L14.8661 2.80358C14.7857 2.68286 14.6518 2.61 14.5125 2.61H9.4875ZM19.5161 6.96H4.48339L5.75893 24.4253C5.79107 24.8766 6.16607 25.23 6.61071 25.23H17.3893C17.8339 25.23 18.2089 24.8766 18.2411 24.4253L19.5161 6.96Z" fill="#C1C1C1"/>
</g>
<defs>
<clipPath id="clip0_425_5284">
<rect width="24" height="27.84" fill="white"/>
</clipPath>
</defs>
</svg>
