<svg width="24" height="24" viewBox="0 0 24 24" fill="none" xmlns="http://www.w3.org/2000/svg">
<path d="M23.4099 20.2766C24.1127 20.9554 24.1127 22.0567 23.4099 22.7355C22.7072 23.4144 21.567 23.4143 20.8641 22.7355L12.0012 14.111L3.0753 22.7326C2.37255 23.4114 1.23236 23.4114 0.529536 22.7326C-0.173287 22.0539 -0.173212 20.9525 0.529536 20.2737L9.45846 11.6549L0.527061 2.9681C-0.175687 2.28931 -0.175687 1.18798 0.527061 0.50912C1.22981 -0.169743 2.37 -0.16967 3.07282 0.50912L12.0012 9.19886L20.9271 0.577223C21.6299 -0.101567 22.7701 -0.101567 23.4729 0.577223C24.1757 1.25601 24.1757 2.35734 23.4729 3.0362L14.544 11.6549L23.4099 20.2766Z" fill="#1E1E1E"/>
</svg>
