<svg width="220" height="225" viewBox="0 0 220 225" fill="none" xmlns="http://www.w3.org/2000/svg">
<g clip-path="url(#clip0_425_5358)">
<path d="M135.831 188.816L137.721 225C137.721 225 57.8035 149.128 47.8472 126.929C37.891 104.73 56.6321 49.8161 56.6321 49.8161L98.2141 72.5995L135.831 188.816Z" fill="#FBEBDB"/>
<path d="M13.2932 34.6272L0.994284 35.7956C0.994284 35.7956 -5.448 49.8161 14.4645 50.9845L13.2932 34.6272Z" fill="#FBEBDB"/>
<path d="M13.2932 56.2422L0.994284 57.4106C0.994284 57.4106 -5.448 71.4311 14.4645 72.5995L13.2932 56.2422Z" fill="#FBEBDB"/>
<path d="M13.2932 79.6097L0.994284 80.7781C0.994284 80.7781 -5.448 94.7986 14.4645 95.967L13.2932 79.6097Z" fill="#FBEBDB"/>
<path d="M16.8071 102.977L4.5082 104.146C4.5082 104.146 -1.93409 118.166 17.9784 119.335L16.8071 102.977Z" fill="#FBEBDB"/>
<path d="M7.30566 40.2598H8.23887V14.7591C8.23887 12.8209 8.62159 10.9017 9.36517 9.11104C10.1088 7.32039 11.1986 5.69336 12.5726 4.32285C13.9466 2.95234 15.5777 1.86519 17.3728 1.12348C19.168 0.38176 21.0921 1.48496e-06 23.0352 0H77.1979C79.141 -3.95979e-06 81.0651 0.381749 82.8602 1.12346C84.6554 1.86517 86.2865 2.95231 87.6605 4.32282C89.0345 5.69332 90.1244 7.32034 90.8679 9.111C91.6115 10.9017 91.9943 12.8209 91.9943 14.7591V154.658C91.9943 156.596 91.6115 158.515 90.868 160.306C90.1244 162.096 89.0345 163.723 87.6605 165.094C86.2866 166.464 84.6554 167.552 82.8603 168.293C81.0651 169.035 79.1411 169.417 77.198 169.417H23.0352C19.111 169.417 15.3475 167.862 12.5727 165.094C9.7978 162.326 8.2389 158.572 8.23889 154.658V58.4116H7.30566V40.2598Z" fill="#3F3D56"/>
<path d="M22.4381 3.83979H29.5082C29.183 4.63491 29.0589 5.49758 29.1468 6.35181C29.2346 7.20604 29.5317 8.02561 30.0119 8.73833C30.4921 9.45104 31.1406 10.035 31.9004 10.4388C32.6601 10.8427 33.5078 11.0539 34.3687 11.054H65.3978C66.2587 11.0539 67.1064 10.8427 67.8661 10.4388C68.6259 10.035 69.2744 9.45105 69.7546 8.73833C70.2348 8.02561 70.5319 7.20604 70.6197 6.35181C70.7076 5.49757 70.5835 4.6349 70.2583 3.83978H76.8618C79.7923 3.83978 82.6029 5.00101 84.6751 7.06802C86.7473 9.13503 87.9115 11.9385 87.9115 14.8617V154.555C87.9115 156.002 87.6257 157.436 87.0704 158.773C86.5151 160.11 85.7012 161.325 84.6751 162.349C83.649 163.372 82.4309 164.184 81.0903 164.738C79.7497 165.292 78.3128 165.577 76.8618 165.577H22.4381C20.9871 165.577 19.5502 165.292 18.2096 164.738C16.869 164.184 15.6509 163.372 14.6248 162.349C13.5988 161.325 12.7848 160.11 12.2295 158.773C11.6742 157.436 11.3884 156.002 11.3884 154.555V14.8617C11.3884 13.4143 11.6742 11.981 12.2295 10.6438C12.7848 9.30656 13.5988 8.09151 14.6248 7.06803C15.6509 6.04455 16.869 5.23268 18.2096 4.67878C19.5502 4.12488 20.9871 3.83979 22.4381 3.83979Z" fill="white"/>
<path d="M61.3101 42.975H37.9897V48.5882H61.3101V42.975Z" fill="#325FFF"/>
<path d="M62.4202 67.0948H36.8794V72.7081H62.4202V67.0948Z" fill="#E5E5E5"/>
<path d="M78.1521 79.1528H21.1475V84.7661H78.1521V79.1528Z" fill="#E5E5E5"/>
<path d="M78.1521 91.2108H21.1475V96.8241H78.1521V91.2108Z" fill="#E5E5E5"/>
<path d="M191 207.662L125.447 133.063L123.105 85.1595L98.5069 44.2663L91.479 26.7407C91.479 26.7407 75.0805 28.4932 88.5507 61.792L94.1145 79.6097C89.0992 90.3848 86.5009 102.122 86.5009 114.001V154.831C86.5009 164.445 132.431 216.812 137.777 224.812L191 207.662Z" fill="#FBEBDB"/>
<path opacity="0.2" d="M93.4072 47.7315L98.2972 45.3343L98.1306 44.9958L93.6124 47.211L86.7919 29.374L86.439 29.5086L93.4072 47.7315Z" fill="#1E1E1E"/>
<path opacity="0.2" d="M1.05983 35.6181L0.929199 35.9719L8.17327 38.6336L8.3039 38.2799L1.05983 35.6181Z" fill="#1E1E1E"/>
<path opacity="0.2" d="M1.05983 57.4795L0.929199 57.8332L8.17327 60.495L8.3039 60.1412L1.05983 57.4795Z" fill="#1E1E1E"/>
<path opacity="0.2" d="M1.05983 80.8484L0.929199 81.2021L8.17327 83.8639L8.3039 83.5102L1.05983 80.8484Z" fill="#1E1E1E"/>
<path opacity="0.2" d="M4.85488 104.224L4.69141 104.564L8.21824 106.253L8.38171 105.913L4.85488 104.224Z" fill="#1E1E1E"/>
<path d="M49.6788 145.267C58.7005 145.267 66.014 137.971 66.014 128.972C66.014 119.973 58.7005 112.678 49.6788 112.678C40.6571 112.678 33.3435 119.973 33.3435 128.972C33.3435 137.971 40.6571 145.267 49.6788 145.267Z" fill="#325FFF"/>
<path d="M48.122 135.851L43.2332 129.58L46.0762 127.374L48.3911 130.343L56.2118 122.108L58.827 124.58L48.122 135.851Z" fill="white"/>
</g>
<rect x="33" y="208" width="187" height="17" fill="white"/>
<defs>
<clipPath id="clip0_425_5358">
<rect width="191" height="225" fill="white"/>
</clipPath>
</defs>
</svg>
