<svg width="30" height="30" viewBox="0 0 30 30" fill="none" xmlns="http://www.w3.org/2000/svg">
<g clip-path="url(#clip0_533_1107)">
<path d="M13.5938 20.1562V16.4062H9.84375C9.06445 16.4062 8.4375 15.7793 8.4375 15C8.4375 14.2207 9.06445 13.5938 9.84375 13.5938H13.5938V9.84375C13.5938 9.06445 14.2207 8.4375 15 8.4375C15.7793 8.4375 16.4062 9.06445 16.4062 9.84375V13.5938H20.1562C20.9355 13.5938 21.5625 14.2207 21.5625 15C21.5625 15.7793 20.9355 16.4062 20.1562 16.4062H16.4062V20.1562C16.4062 20.9355 15.7793 21.5625 15 21.5625C14.2207 21.5625 13.5938 20.9355 13.5938 20.1562ZM30 15C30 23.2852 23.2852 30 15 30C6.71484 30 0 23.2852 0 15C0 6.71484 6.71484 0 15 0C23.2852 0 30 6.71484 30 15ZM15 2.8125C8.26758 2.8125 2.8125 8.26758 2.8125 15C2.8125 21.7324 8.26758 27.1875 15 27.1875C21.7324 27.1875 27.1875 21.7324 27.1875 15C27.1875 8.26758 21.7324 2.8125 15 2.8125Z" fill="white"/>
</g>
<defs>
<clipPath id="clip0_533_1107">
<rect width="30" height="30" fill="white"/>
</clipPath>
</defs>
</svg>
