<?xml version="1.0" standalone="no"?>
<!DOCTYPE svg PUBLIC "-//W3C//DTD SVG 20010904//EN"
 "http://www.w3.org/TR/2001/REC-SVG-20010904/DTD/svg10.dtd">
<svg version="1.0" xmlns="http://www.w3.org/2000/svg"
 width="199.000000pt" height="360.000000pt" viewBox="0 0 199.000000 360.000000"
 preserveAspectRatio="xMidYMid meet">

<g transform="translate(0.000000,360.000000) scale(0.100000,-0.100000)"
fill="#000000" stroke="none">
<path d="M120 3435 l0 -65 320 0 320 0 0 65 0 65 -320 0 -320 0 0 -65z m105
15 c0 -17 -6 -25 -20 -27 -11 -2 -14 0 -7 3 6 3 12 14 12 24 0 14 -9 20 -32
23 -27 4 -25 4 7 3 36 -1 40 -4 40 -26z m123 3 c2 -16 -4 -26 -22 -35 -14 -6
-26 -15 -26 -20 0 -4 -7 -8 -15 -8 -11 0 -15 12 -15 46 l0 45 38 -3 c30 -2 38
-7 40 -25z m90 15 c16 -16 15 -53 -2 -67 -8 -7 -27 -11 -43 -9 -22 2 -29 9
-31 31 -2 16 -1 35 2 43 7 17 57 19 74 2z m96 -3 c3 -8 3 -22 0 -30 -4 -8 -1
-22 6 -30 10 -12 9 -15 -8 -15 -11 0 -22 7 -26 15 -3 8 -10 15 -16 15 -5 0
-10 -7 -10 -15 0 -8 -4 -15 -10 -15 -5 0 -10 20 -10 45 0 44 0 45 34 45 21 0
36 -6 40 -15z m181 -6 c4 -11 4 -32 1 -45 -6 -22 -11 -25 -44 -22 -35 3 -37 5
-40 40 -4 49 -32 42 -32 -8 0 -24 -5 -34 -15 -34 -10 0 -15 10 -15 31 0 19 -7
37 -17 45 -15 11 -5 13 69 13 78 0 88 -2 93 -20z m-535 -34 c0 -19 -4 -35 -10
-35 -5 0 -10 16 -10 35 0 19 5 35 10 35 6 0 10 -16 10 -35z m70 -25 c0 -5 -7
-10 -15 -10 -8 0 -15 5 -15 10 0 6 7 10 15 10 8 0 15 -4 15 -10z"/>
<path d="M296 3445 c4 -8 10 -12 15 -9 14 8 10 24 -6 24 -9 0 -12 -6 -9 -15z"/>
<path d="M380 3435 c0 -18 5 -25 20 -25 15 0 20 7 20 25 0 18 -5 25 -20 25
-15 0 -20 -7 -20 -25z"/>
<path d="M480 3450 c0 -5 7 -10 15 -10 8 0 15 5 15 10 0 6 -7 10 -15 10 -8 0
-15 -4 -15 -10z"/>
<path d="M661 3461 c-18 -11 -10 -45 12 -49 12 -3 17 3 17 22 0 29 -10 38 -29
27z"/>
<path d="M826 3488 c3 -4 9 -8 15 -8 5 0 9 4 9 8 0 5 -7 9 -15 9 -8 0 -12 -4
-9 -9z"/>
<path d="M870 3490 c0 -5 5 -10 10 -10 6 0 10 5 10 10 0 6 -4 10 -10 10 -5 0
-10 -4 -10 -10z"/>
<path d="M905 3490 c-3 -5 -1 -10 4 -10 6 0 11 5 11 10 0 6 -2 10 -4 10 -3 0
-8 -4 -11 -10z"/>
<path d="M944 3488 c4 -18 38 -16 43 2 4 13 3 13 -6 0 -10 -13 -11 -13 -11 0
0 12 -2 13 -9 1 -6 -9 -10 -10 -14 -2 -3 7 -5 7 -3 -1z"/>
<path d="M851 3434 c0 -11 3 -14 6 -6 3 7 2 16 -1 19 -3 4 -6 -2 -5 -13z"/>
<path d="M886 3441 c-4 -7 -5 -15 -2 -18 9 -9 19 4 14 18 -4 11 -6 11 -12 0z"/>
<path d="M911 3434 c0 -11 3 -14 6 -6 3 7 2 16 -1 19 -3 4 -6 -2 -5 -13z"/>
<path d="M960 3436 c0 -9 5 -16 10 -16 6 0 10 4 10 9 0 6 -4 13 -10 16 -5 3
-10 -1 -10 -9z"/>
<path d="M1110 3414 c0 -10 5 -12 13 -7 33 20 61 1 55 -39 -2 -19 -9 -23 -35
-23 -20 0 -33 -5 -33 -12 0 -10 37 -13 155 -13 l155 0 0 55 0 55 -155 0 c-134
0 -155 -2 -155 -16z m128 -3 c8 -4 12 -17 11 -27 -2 -11 0 -25 4 -31 5 -7 4
-13 0 -13 -5 0 -15 6 -22 13 -11 10 -14 10 -18 0 -9 -25 -23 -12 -23 20 0 46
16 59 48 38z m82 -1 c0 -5 -4 -10 -10 -10 -5 0 -10 -13 -10 -30 0 -16 -4 -30
-10 -30 -5 0 -10 14 -10 30 0 17 -4 30 -10 30 -5 0 -10 5 -10 10 0 6 14 10 30
10 17 0 30 -4 30 -10z m75 -20 c4 -12 1 -27 -5 -35 -27 -33 -78 -5 -65 35 4
14 15 20 35 20 20 0 31 -6 35 -20z"/>
<path d="M1210 3390 c0 -5 5 -10 10 -10 6 0 10 5 10 10 0 6 -4 10 -10 10 -5 0
-10 -4 -10 -10z"/>
<path d="M1347 3394 c-14 -15 -6 -34 14 -34 14 0 19 5 17 17 -3 18 -20 27 -31
17z"/>
<path d="M1132 3378 c2 -13 8 -23 13 -23 6 0 11 10 13 23 2 15 -2 22 -13 22
-11 0 -15 -7 -13 -22z"/>
<path d="M823 3377 c0 -7 14 -12 32 -12 22 0 31 4 28 13 -3 6 -9 12 -14 12 -5
0 -9 -6 -9 -12 0 -8 -3 -9 -8 -3 -10 15 -29 16 -29 2z"/>
<path d="M915 3380 c-3 -5 -1 -10 4 -10 6 0 11 5 11 10 0 6 -2 10 -4 10 -3 0
-8 -4 -11 -10z"/>
<path d="M941 3374 c0 -11 3 -14 6 -6 3 7 2 16 -1 19 -3 4 -6 -2 -5 -13z"/>
<path d="M111 3088 c2 -30 2 -30 6 -6 2 15 12 29 21 31 12 3 10 5 -5 6 -20 1
-23 -4 -22 -31z"/>
<path d="M170 3090 c0 -25 4 -30 23 -29 16 1 18 2 5 6 -10 2 -18 13 -18 23 0
10 8 21 18 23 13 4 11 5 -5 6 -19 1 -23 -4 -23 -29z"/>
<path d="M231 3098 c0 -16 2 -18 6 -8 3 8 11 18 17 22 7 5 4 8 -6 8 -12 0 -18
-7 -17 -22z"/>
<path d="M280 3090 c0 -25 4 -30 23 -29 16 1 18 2 5 6 -10 2 -18 13 -18 23 0
10 8 21 18 23 13 4 11 5 -5 6 -19 1 -23 -4 -23 -29z"/>
<path d="M364 3105 c-13 -32 23 -63 40 -36 4 5 -3 7 -14 4 -16 -4 -20 0 -20
17 0 17 4 21 20 17 11 -3 18 -1 14 4 -8 14 -34 11 -40 -6z"/>
<path d="M430 3105 c-19 -22 -8 -25 13 -3 9 10 13 18 8 18 -5 0 -14 -7 -21
-15z"/>
<path d="M490 3090 c0 -25 4 -30 23 -29 16 1 18 2 5 6 -10 2 -18 13 -18 23 0
10 8 21 18 23 13 4 11 5 -5 6 -19 1 -23 -4 -23 -29z"/>
<path d="M550 3103 c0 -14 2 -15 9 -4 5 8 14 10 21 6 9 -5 11 -4 6 3 -11 18
-36 14 -36 -5z"/>
<path d="M575 3080 c3 -5 8 -10 11 -10 2 0 4 5 4 10 0 6 -5 10 -11 10 -5 0 -7
-4 -4 -10z"/>
<path d="M438 3063 c6 -2 18 -2 25 0 6 3 1 5 -13 5 -14 0 -19 -2 -12 -5z"/>
<path d="M484 2797 c-2 -7 -3 -58 -2 -113 l3 -99 73 -3 c93 -4 102 3 102 79 0
58 -1 61 -47 104 -39 36 -55 45 -86 45 -22 0 -40 -5 -43 -13z m76 -31 c0 -32
18 -59 36 -55 5 1 19 1 32 0 22 -1 23 -5 20 -58 l-3 -58 -77 -3 -78 -3 0 99
c0 54 3 102 7 105 3 4 19 7 35 7 25 0 28 -3 28 -34z m50 -11 l23 -25 -31 0
c-27 0 -32 4 -32 25 0 14 4 25 8 25 5 0 19 -11 32 -25z"/>
<path d="M543 2673 c15 -2 37 -2 50 0 12 2 0 4 -28 4 -27 0 -38 -2 -22 -4z"/>
<path d="M543 2633 c15 -2 37 -2 50 0 12 2 0 4 -28 4 -27 0 -38 -2 -22 -4z"/>
<path d="M1514 2124 c-94 -46 -60 -194 44 -194 49 0 97 36 107 79 9 41 -17 96
-54 115 -37 20 -57 20 -97 0z m111 -29 c47 -46 22 -134 -41 -149 -37 -10 -82
11 -99 45 -21 40 -19 63 11 98 34 41 92 44 129 6z"/>
<path d="M1547 2075 c-24 -17 -21 -34 8 -45 35 -13 33 -34 -2 -25 -26 6 -27 5
-11 -11 14 -14 20 -15 32 -4 22 17 20 41 -4 47 -25 7 -26 21 -1 25 15 2 16 6
7 14 -9 8 -17 8 -29 -1z"/>
<path d="M494 2036 c-73 -73 -24 -176 82 -176 103 0 131 151 37 199 -42 21
-83 13 -119 -23z m137 -5 c86 -86 -36 -216 -128 -137 -23 20 -28 32 -28 71 0
40 4 50 30 71 42 34 89 32 126 -5z"/>
<path d="M562 1998 l-2 -48 33 1 c29 2 29 2 5 6 -24 4 -27 10 -31 46 l-4 42
-1 -47z"/>
<path d="M1442 1860 c0 -14 2 -19 5 -12 2 6 2 18 0 25 -3 6 -5 1 -5 -13z"/>
<path d="M1481 1854 c0 -11 3 -14 6 -6 3 7 2 16 -1 19 -3 4 -6 -2 -5 -13z"/>
<path d="M1110 1588 c0 -46 13 -77 24 -60 3 6 22 9 41 8 19 -2 35 1 35 5 0 5
5 9 10 9 15 0 12 -50 -2 -52 -7 -1 -33 -2 -58 -2 l-45 -1 -3 -42 -3 -43 371 0
c237 0 378 4 391 10 17 9 19 22 19 98 0 55 -4 92 -12 100 -9 9 -109 12 -390
12 l-378 0 0 -42z m710 -18 c26 -26 25 -68 -2 -97 -28 -30 -63 -29 -93 2 -30
30 -31 54 -4 89 25 32 70 35 99 6z"/>
<path d="M1730 1549 c-26 -47 25 -100 69 -72 20 13 26 60 10 79 -18 22 -66 18
-79 -7z m56 -14 c14 -13 14 -17 0 -31 -15 -14 -17 -14 -32 0 -12 13 -13 18 -2
30 16 19 16 19 34 1z"/>
<path d="M535 1326 c-33 -6 -66 -15 -72 -19 -9 -5 -13 -34 -13 -82 0 -63 3
-76 19 -85 28 -14 184 -13 199 2 15 15 16 148 2 148 -6 0 -15 11 -20 25 -11
28 -21 29 -115 11z m103 -13 c3 -10 -17 -13 -80 -12 l-83 1 65 13 c76 15 92
14 98 -2z m30 -92 c2 -41 -1 -67 -8 -71 -15 -9 -161 -13 -183 -4 -13 5 -17 19
-17 68 0 35 3 66 7 70 4 4 50 5 103 4 l95 -3 3 -64z"/>
<path d="M612 1219 c2 -6 8 -10 13 -10 5 0 11 4 13 10 2 6 -4 11 -13 11 -9 0
-15 -5 -13 -11z"/>
<path d="M960 612 c0 -6 -9 -12 -20 -15 -19 -5 -21 -12 -18 -104 l3 -98 35 -1
35 -2 -32 5 -33 4 0 74 0 74 33 4 32 4 -33 1 c-40 2 -39 24 0 32 22 4 24 7 12
18 -8 7 -14 9 -14 4z"/>
<path d="M952 493 c2 -19 10 -29 23 -31 18 -2 18 -2 3 8 -10 6 -18 17 -18 25
0 7 8 16 18 18 12 3 11 5 -6 6 -20 1 -23 -3 -20 -26z"/>
</g>
</svg>
