<svg width="193" height="360" viewBox="0 0 193 360" fill="none" xmlns="http://www.w3.org/2000/svg">
<path d="M175.472 74.8284C173.842 60.7008 168.475 47.2631 159.924 35.8994C151.374 24.5357 139.948 15.6568 126.825 10.1771C113.701 4.69741 99.3546 2.81509 85.2619 4.72397C71.1691 6.63285 57.84 12.2639 46.6472 21.0373" stroke="#176BA0" stroke-width="8" stroke-linecap="round"/>
<path d="M176 84.0002C176 97.1563 172.755 110.109 166.554 121.712C160.352 133.315 151.384 143.209 140.446 150.518C129.507 157.827 116.934 162.325 103.841 163.615C90.7487 164.904 77.54 162.945 65.3853 157.911C53.2307 152.876 42.5053 144.921 34.1592 134.752C25.813 124.582 20.1038 112.511 17.5372 99.6074C14.9706 86.7041 15.6258 73.367 19.4448 60.7774C23.2638 48.1878 30.1287 36.7344 39.4315 27.4316" stroke="#325FFF" stroke-width="8" stroke-linecap="round"/>
<ellipse cx="96.3999" cy="83.6004" rx="57.2" ry="57.2" fill="#F5F5F5"/>
<rect y="195" width="35" height="35" rx="3.52" fill="#F5F5F5"/>
<rect x="52.5" y="195" width="35" height="35" rx="3.52" fill="#F5F5F5"/>
<rect x="105" y="195" width="35" height="35" rx="3.52" fill="#F5F5F5"/>
<rect x="157.5" y="195" width="35" height="35" rx="3.52" fill="#F5F5F5"/>
<rect x="15" y="260" width="163" height="20" rx="4" fill="#F5F5F5"/>
<rect x="15" y="295" width="163" height="20" rx="4" fill="#F5F5F5"/>
<rect x="66" y="340" width="60" height="20" rx="4" fill="#325FFF"/>
<path fill-rule="evenodd" clip-rule="evenodd" d="M89.5021 79.3548L95.6843 71.4064C95.8444 71.2005 96.1556 71.2005 96.3157 71.4064L102.498 79.3548C102.52 79.3837 102.538 79.414 102.551 79.4451C104.664 81.2786 106 83.9835 106 87.0004C106 92.5233 101.523 97.0004 96 97.0004C90.4772 97.0004 86 92.5233 86 87.0004C86 83.9835 87.336 81.2786 89.4486 79.4451C89.4619 79.414 89.4797 79.3837 89.5021 79.3548Z" fill="#D9D9D9"/>
</svg>
